<svg id="svg" version="1.1" xmlns="http://www.w3.org/2000/svg" xmlns:xlink="http://www.w3.org/1999/xlink" width="400" height="241.5" viewBox="0, 0, 400,241.5"><g id="svgg"><path id="path0" d="M16.187 204.529 C 16.189 215.655,16.279 224.898,16.387 225.068 C 16.534 225.299,17.346 225.361,19.584 225.310 L 22.585 225.242 22.648 216.247 L 22.711 207.253 31.223 207.189 L 39.734 207.126 39.805 204.952 C 39.844 203.756,39.815 202.533,39.740 202.234 L 39.604 201.691 31.155 201.691 L 22.705 201.691 22.705 195.773 L 22.705 189.855 33.164 189.855 C 40.977 189.855,43.697 189.782,43.913 189.565 C 44.386 189.092,44.306 184.632,43.821 184.446 C 43.611 184.365,37.306 184.300,29.811 184.300 L 16.184 184.300 16.187 204.529 M48.128 184.459 C 47.697 184.634,47.685 224.641,48.116 225.072 C 48.455 225.412,75.988 225.494,76.519 225.158 C 76.747 225.013,76.811 224.295,76.760 222.444 L 76.691 219.928 65.640 219.865 L 54.589 219.802 54.589 213.044 L 54.589 206.286 63.345 206.223 L 72.101 206.159 72.171 203.643 C 72.222 201.792,72.158 201.074,71.929 200.929 C 71.758 200.821,67.787 200.730,63.104 200.728 L 54.589 200.725 54.589 195.292 L 54.589 189.860 65.399 189.797 L 76.208 189.734 76.276 187.017 L 76.344 184.300 62.387 184.319 C 54.711 184.329,48.294 184.392,48.128 184.459 M82.045 184.461 C 81.957 184.549,81.884 193.732,81.884 204.867 L 81.884 225.112 82.428 225.243 C 82.726 225.316,89.167 225.345,96.739 225.308 L 110.507 225.242 110.576 222.524 L 110.644 219.807 99.525 219.807 L 88.406 219.807 88.406 213.043 L 88.406 206.280 97.196 206.280 C 104.989 206.280,106.004 206.237,106.134 205.898 C 106.407 205.186,106.293 201.318,105.990 201.014 C 105.776 200.800,103.457 200.725,97.053 200.725 L 88.406 200.725 88.406 195.290 L 88.406 189.855 99.275 189.855 L 110.145 189.855 110.145 187.077 L 110.145 184.300 96.176 184.300 C 88.492 184.300,82.134 184.372,82.045 184.461 M116.243 204.771 L 116.304 225.242 127.280 225.304 C 134.434 225.345,138.341 225.282,138.500 225.123 C 138.634 224.989,139.076 224.879,139.482 224.879 C 140.346 224.879,143.562 223.763,143.680 223.422 C 143.724 223.293,143.968 223.188,144.223 223.188 C 144.478 223.188,144.686 223.080,144.686 222.947 C 144.686 222.814,144.903 222.705,145.169 222.705 C 145.435 222.705,145.652 222.597,145.652 222.464 C 145.652 222.331,145.814 222.222,146.012 222.222 C 146.342 222.222,146.907 221.842,147.715 221.075 C 147.890 220.909,148.122 220.770,148.232 220.767 C 148.461 220.760,150.725 218.493,150.725 218.271 C 150.725 218.124,151.279 217.402,151.872 216.778 C 152.038 216.603,152.174 216.298,152.174 216.100 C 152.174 215.902,152.260 215.705,152.365 215.660 C 152.469 215.616,152.958 214.764,153.450 213.768 C 156.017 208.570,155.987 201.516,153.375 196.256 C 151.569 192.621,149.839 190.417,147.585 188.883 C 147.120 188.567,146.685 188.241,146.618 188.158 C 146.552 188.075,146.117 187.798,145.652 187.542 C 145.187 187.286,144.752 187.023,144.686 186.957 C 144.397 186.668,143.455 186.232,143.119 186.232 C 142.918 186.232,142.754 186.123,142.754 185.990 C 142.754 185.857,142.428 185.749,142.029 185.749 C 141.630 185.749,141.304 185.640,141.304 185.507 C 141.304 185.374,140.924 185.266,140.459 185.266 C 139.994 185.266,139.614 185.157,139.614 185.024 C 139.614 184.890,138.969 184.783,138.164 184.783 C 137.359 184.783,136.715 184.675,136.715 184.541 C 136.715 184.384,133.132 184.300,126.448 184.300 L 116.181 184.300 116.243 204.771 M159.814 184.843 C 159.548 185.837,159.642 224.391,159.912 224.895 C 160.197 225.428,180.676 225.651,180.676 225.121 C 180.676 224.988,181.004 224.879,181.404 224.879 C 181.805 224.879,182.321 224.783,182.552 224.664 C 182.782 224.546,183.379 224.250,183.877 224.006 C 184.375 223.761,184.783 223.478,184.783 223.375 C 184.783 223.272,184.954 223.188,185.163 223.188 C 185.626 223.188,188.647 220.127,188.647 219.658 C 188.647 219.474,188.756 219.324,188.889 219.324 C 189.022 219.324,189.130 219.199,189.130 219.046 C 189.130 218.893,189.429 218.159,189.795 217.415 C 191.197 214.560,190.568 209.047,188.594 206.899 C 188.358 206.641,188.164 206.340,188.164 206.228 C 188.164 205.911,186.178 204.023,185.444 203.643 C 185.080 203.454,184.783 203.210,184.783 203.099 C 184.783 202.989,184.565 202.899,184.300 202.899 C 183.546 202.899,183.708 202.578,185.266 200.986 C 186.063 200.171,186.715 199.344,186.715 199.148 C 186.715 198.953,186.824 198.792,186.957 198.792 C 187.089 198.792,187.198 198.521,187.198 198.188 C 187.198 197.856,187.307 197.585,187.440 197.585 C 187.587 197.585,187.681 196.462,187.681 194.700 C 187.681 193.038,187.579 191.753,187.440 191.667 C 187.307 191.585,187.198 191.252,187.198 190.928 C 187.198 190.603,187.089 190.338,186.957 190.338 C 186.824 190.338,186.715 190.177,186.715 189.980 C 186.715 189.192,183.273 185.749,182.485 185.749 C 182.287 185.749,182.126 185.640,182.126 185.507 C 182.126 185.374,181.860 185.266,181.536 185.266 C 181.212 185.266,180.879 185.157,180.797 185.024 C 180.715 184.891,180.280 184.783,179.831 184.783 C 179.382 184.783,178.947 184.674,178.865 184.541 C 178.769 184.387,175.329 184.300,169.338 184.300 L 159.960 184.300 159.814 184.843 M194.277 198.732 C 194.367 214.568,194.362 214.507,195.840 217.633 C 196.902 219.878,199.056 222.705,199.705 222.705 C 199.817 222.705,200.171 222.950,200.492 223.249 C 201.149 223.861,203.054 224.879,203.543 224.879 C 203.720 224.879,203.865 224.976,203.865 225.094 C 203.865 225.359,205.135 225.601,207.367 225.761 C 208.297 225.828,209.161 225.983,209.287 226.106 C 209.603 226.412,214.251 226.395,214.251 226.087 C 214.251 225.954,214.843 225.845,215.565 225.845 C 216.288 225.845,216.947 225.737,217.029 225.604 C 217.111 225.471,217.498 225.362,217.889 225.362 C 218.279 225.362,218.599 225.254,218.599 225.121 C 218.599 224.988,218.741 224.879,218.914 224.879 C 219.394 224.879,221.739 223.658,221.739 223.408 C 221.739 223.287,221.905 223.188,222.108 223.188 C 222.948 223.188,226.812 218.338,226.812 217.282 C 226.812 217.092,226.920 216.870,227.053 216.787 C 227.186 216.705,227.295 216.379,227.295 216.063 C 227.295 215.746,227.392 215.427,227.511 215.354 C 227.989 215.058,228.089 212.565,228.177 198.732 L 228.268 184.300 225.008 184.300 L 221.747 184.300 221.655 198.007 C 221.567 211.162,221.464 213.611,220.989 213.905 C 220.870 213.978,220.773 214.303,220.773 214.628 C 220.773 214.952,220.664 215.217,220.531 215.217 C 220.399 215.217,220.290 215.435,220.290 215.700 C 220.290 215.966,220.181 216.184,220.048 216.184 C 219.915 216.184,219.807 216.306,219.807 216.456 C 219.807 216.907,217.142 219.324,216.645 219.324 C 216.391 219.324,216.184 219.432,216.184 219.565 C 216.184 219.698,215.864 219.807,215.473 219.807 C 215.082 219.807,214.696 219.915,214.614 220.048 C 214.526 220.191,213.081 220.290,211.097 220.290 C 209.013 220.290,207.729 220.198,207.729 220.048 C 207.729 219.915,207.403 219.807,207.005 219.807 C 206.606 219.807,206.280 219.698,206.280 219.565 C 206.280 219.432,206.063 219.324,205.797 219.324 C 205.531 219.324,205.314 219.215,205.314 219.082 C 205.314 218.949,205.097 218.841,204.831 218.841 C 204.565 218.841,204.348 218.750,204.348 218.640 C 204.348 218.529,204.088 218.300,203.771 218.130 C 203.453 217.960,203.045 217.534,202.865 217.184 C 202.684 216.833,202.395 216.397,202.222 216.215 C 202.050 216.033,201.846 215.569,201.769 215.183 C 201.691 214.798,201.534 214.424,201.418 214.353 C 201.302 214.281,201.208 213.909,201.208 213.527 C 201.208 213.144,201.099 212.763,200.966 212.681 C 200.810 212.584,200.725 207.663,200.725 198.706 C 200.725 188.274,200.653 184.808,200.435 184.589 C 200.241 184.395,199.162 184.300,197.170 184.300 L 194.195 184.300 194.277 198.732 M234.783 204.831 L 234.783 225.362 237.808 225.362 C 240.833 225.362,240.833 225.362,241.069 224.743 C 241.215 224.359,241.304 216.781,241.304 204.831 C 241.304 192.880,241.215 185.303,241.069 184.919 C 240.833 184.300,240.833 184.300,237.808 184.300 L 234.783 184.300 234.783 204.831 M248.792 204.826 L 248.792 225.366 262.500 225.304 L 276.208 225.242 276.276 222.524 L 276.344 219.807 265.710 219.807 L 255.076 219.807 255.014 202.114 L 254.952 184.420 251.872 184.353 L 248.792 184.285 248.792 204.826 M279.463 184.919 C 279.142 185.763,279.144 223.904,279.464 224.747 L 279.702 225.372 290.757 225.278 C 301.437 225.188,303.727 225.074,304.215 224.613 C 304.341 224.494,304.688 224.396,304.986 224.396 C 305.283 224.396,305.594 224.287,305.676 224.155 C 305.758 224.022,306.023 223.913,306.265 223.913 C 306.506 223.913,306.839 223.750,307.005 223.551 C 307.170 223.351,307.510 223.188,307.759 223.188 C 308.008 223.188,308.213 223.092,308.213 222.975 C 308.213 222.858,308.403 222.701,308.635 222.628 C 310.383 222.073,314.391 218.382,315.439 216.361 C 315.628 215.998,315.872 215.700,315.983 215.700 C 316.093 215.700,316.184 215.483,316.184 215.217 C 316.184 214.952,316.292 214.734,316.425 214.734 C 316.558 214.734,316.667 214.517,316.667 214.251 C 316.667 213.986,316.775 213.768,316.908 213.768 C 317.041 213.768,317.150 213.503,317.150 213.179 C 317.150 212.854,317.258 212.522,317.391 212.440 C 317.524 212.358,317.633 212.047,317.633 211.749 C 317.633 211.451,317.733 211.104,317.855 210.978 C 318.957 209.840,318.954 200.325,317.851 199.167 C 317.731 199.040,317.633 198.687,317.633 198.382 C 317.633 198.076,317.524 197.826,317.391 197.826 C 317.258 197.826,317.150 197.500,317.150 197.101 C 317.150 196.703,317.041 196.377,316.908 196.377 C 316.775 196.377,316.667 196.159,316.667 195.894 C 316.667 195.628,316.581 195.411,316.476 195.411 C 316.370 195.411,315.968 194.786,315.582 194.022 C 314.736 192.352,311.303 188.809,310.074 188.338 C 309.847 188.251,309.662 188.080,309.662 187.960 C 309.662 187.839,309.336 187.605,308.937 187.440 C 308.539 187.275,308.213 187.044,308.213 186.927 C 308.213 186.810,307.995 186.715,307.729 186.715 C 307.464 186.715,307.246 186.606,307.246 186.473 C 307.246 186.341,307.035 186.232,306.778 186.232 C 306.520 186.232,306.242 186.123,306.159 185.990 C 306.077 185.857,305.751 185.749,305.435 185.749 C 305.118 185.749,304.800 185.652,304.727 185.534 C 304.584 185.304,303.512 185.078,301.570 184.868 C 300.906 184.797,300.259 184.639,300.133 184.519 C 300.003 184.395,295.522 184.300,289.801 184.300 L 279.698 184.300 279.463 184.919 M323.349 184.461 C 323.035 184.775,323.162 224.756,323.478 225.072 C 323.897 225.491,351.466 225.491,351.884 225.072 C 352.357 224.600,352.277 220.139,351.792 219.953 C 351.582 219.873,346.527 219.807,340.560 219.807 L 329.710 219.807 329.710 213.043 L 329.710 206.280 338.501 206.280 C 346.294 206.280,347.308 206.237,347.438 205.898 C 347.711 205.186,347.598 201.318,347.295 201.014 C 347.080 200.800,344.761 200.725,338.357 200.725 L 329.710 200.725 329.710 195.292 L 329.710 189.860 340.640 189.797 L 351.570 189.734 351.638 187.017 L 351.707 184.300 337.609 184.300 C 329.855 184.300,323.438 184.372,323.349 184.461 M357.305 204.771 L 357.367 225.242 360.507 225.242 L 363.647 225.242 363.711 217.814 L 363.775 210.386 367.659 210.386 C 371.340 210.386,371.549 210.412,371.669 210.870 C 371.739 211.135,371.891 211.353,372.009 211.353 C 372.126 211.353,372.222 211.478,372.222 211.632 C 372.222 211.785,372.489 212.261,372.816 212.689 C 373.142 213.117,373.341 213.535,373.258 213.618 C 373.176 213.700,373.227 213.768,373.373 213.768 C 373.519 213.768,373.704 213.973,373.783 214.223 C 373.910 214.623,374.167 214.988,375.116 216.113 C 375.252 216.273,375.362 216.572,375.362 216.777 C 375.362 216.982,375.458 217.150,375.576 217.150 C 375.693 217.150,375.851 217.340,375.927 217.572 C 376.003 217.805,376.401 218.539,376.812 219.203 C 377.222 219.867,377.620 220.601,377.696 220.833 C 377.772 221.066,377.923 221.256,378.031 221.256 C 378.140 221.256,378.297 221.473,378.381 221.738 C 378.465 222.003,378.663 222.360,378.820 222.532 C 379.133 222.874,379.612 223.663,380.135 224.698 L 380.470 225.362 383.694 225.362 C 385.466 225.362,387.089 225.296,387.299 225.216 C 387.691 225.065,387.824 224.500,387.500 224.356 C 387.273 224.255,386.489 222.969,386.310 222.403 C 386.236 222.171,386.080 221.981,385.962 221.981 C 385.845 221.981,385.749 221.818,385.749 221.618 C 385.749 221.419,385.640 221.256,385.507 221.256 C 385.374 221.256,385.266 221.039,385.266 220.773 C 385.266 220.507,385.174 220.290,385.063 220.290 C 384.951 220.290,384.736 220.018,384.585 219.686 C 384.316 219.096,382.153 215.698,381.893 215.459 C 381.821 215.393,381.600 215.012,381.401 214.614 C 381.202 214.215,380.985 213.835,380.918 213.768 C 380.680 213.530,379.919 212.190,379.788 211.775 C 379.714 211.543,379.558 211.353,379.440 211.353 C 379.323 211.353,379.225 211.217,379.222 211.051 C 379.219 210.885,379.004 210.477,378.744 210.145 C 378.060 209.270,378.144 208.986,379.227 208.517 C 379.758 208.287,380.193 208.016,380.193 207.914 C 380.193 207.813,380.366 207.729,380.576 207.729 C 381.738 207.729,385.266 202.808,385.266 201.188 C 385.266 200.816,385.374 200.444,385.507 200.362 C 386.114 199.987,385.727 194.389,384.995 192.938 C 384.878 192.707,384.783 192.360,384.783 192.167 C 384.783 190.281,379.341 185.266,377.294 185.266 C 377.044 185.266,376.773 185.157,376.691 185.024 C 376.609 184.891,376.113 184.783,375.590 184.783 C 375.066 184.783,374.638 184.674,374.638 184.541 C 374.638 184.385,371.578 184.300,365.941 184.300 L 357.244 184.300 357.305 204.771 M135.266 190.097 C 135.266 190.229,135.803 190.338,136.459 190.338 C 137.116 190.338,137.720 190.447,137.802 190.580 C 137.884 190.713,138.218 190.821,138.544 190.821 C 138.870 190.821,139.326 190.919,139.556 191.038 C 139.787 191.158,140.492 191.511,141.123 191.823 C 141.754 192.135,142.271 192.472,142.271 192.572 C 142.271 192.672,142.420 192.754,142.604 192.754 C 143.134 192.754,146.377 196.059,146.377 196.600 C 146.377 196.721,146.458 196.856,146.558 196.900 C 146.658 196.944,146.996 197.524,147.309 198.188 C 147.622 198.853,147.976 199.585,148.094 199.816 C 148.212 200.046,148.309 200.541,148.309 200.915 C 148.309 201.288,148.424 201.709,148.565 201.850 C 149.039 202.324,148.565 209.958,148.042 210.281 C 147.923 210.355,147.826 210.626,147.826 210.884 C 147.826 211.142,147.717 211.353,147.585 211.353 C 147.452 211.353,147.343 211.570,147.343 211.836 C 147.343 212.101,147.234 212.319,147.101 212.319 C 146.969 212.319,146.860 212.455,146.860 212.621 C 146.859 213.230,142.918 217.378,142.323 217.397 C 142.228 217.400,141.878 217.615,141.546 217.874 C 141.214 218.134,140.697 218.349,140.399 218.352 C 140.100 218.355,139.855 218.466,139.855 218.599 C 139.855 218.732,139.535 218.841,139.145 218.841 C 138.754 218.841,138.367 218.949,138.285 219.082 C 138.203 219.215,137.707 219.324,137.184 219.324 C 136.660 219.324,136.232 219.432,136.232 219.565 C 136.232 219.720,133.816 219.807,129.469 219.807 L 122.705 219.807 122.705 204.831 L 122.705 189.855 128.986 189.855 C 133.011 189.855,135.266 189.942,135.266 190.097 M176.932 190.097 C 177.014 190.229,177.347 190.338,177.671 190.338 C 177.996 190.338,178.261 190.447,178.261 190.580 C 178.261 190.713,178.432 190.821,178.642 190.821 C 180.016 190.821,181.609 193.892,181.255 195.857 C 180.939 197.608,179.233 199.470,177.480 199.976 C 176.913 200.140,176.115 200.376,175.707 200.499 C 175.300 200.623,172.990 200.725,170.575 200.725 L 166.184 200.725 166.184 195.290 L 166.184 189.855 171.483 189.855 C 174.756 189.855,176.840 189.947,176.932 190.097 M298.671 190.097 C 298.754 190.229,299.358 190.338,300.014 190.338 C 300.671 190.338,301.208 190.447,301.208 190.580 C 301.208 190.713,301.588 190.821,302.053 190.821 C 302.518 190.821,302.899 190.930,302.899 191.063 C 302.899 191.196,303.040 191.304,303.213 191.304 C 303.657 191.304,304.827 191.872,304.829 192.089 C 304.830 192.189,305.024 192.271,305.261 192.271 C 305.497 192.271,305.847 192.488,306.039 192.754 C 306.230 193.019,306.476 193.237,306.586 193.237 C 307.520 193.237,311.353 198.474,311.353 199.752 C 311.353 200.005,311.461 200.280,311.594 200.362 C 311.727 200.444,311.836 200.988,311.836 201.570 C 311.836 202.152,311.944 202.696,312.077 202.778 C 312.210 202.860,312.319 203.838,312.319 204.952 C 312.319 206.065,312.210 207.043,312.077 207.126 C 311.944 207.208,311.836 207.759,311.836 208.351 C 311.836 208.943,311.737 209.616,311.616 209.846 C 311.495 210.077,311.250 210.592,311.071 210.990 C 310.050 213.263,306.559 217.391,305.658 217.391 C 305.469 217.391,305.314 217.500,305.314 217.633 C 305.314 217.766,305.097 217.874,304.831 217.874 C 304.565 217.874,304.348 217.983,304.348 218.116 C 304.348 218.249,304.130 218.357,303.865 218.357 C 303.599 218.357,303.382 218.466,303.382 218.599 C 303.382 218.732,303.001 218.841,302.536 218.841 C 302.071 218.841,301.691 218.949,301.691 219.082 C 301.691 219.215,301.262 219.324,300.739 219.324 C 300.215 219.324,299.720 219.432,299.638 219.565 C 299.544 219.717,296.938 219.807,292.619 219.807 L 285.749 219.807 285.749 204.831 L 285.749 189.855 292.136 189.855 C 296.133 189.855,298.578 189.945,298.671 190.097 M372.101 190.097 C 372.184 190.229,372.673 190.338,373.188 190.338 C 373.704 190.338,374.193 190.447,374.275 190.580 C 374.357 190.713,374.636 190.821,374.893 190.821 C 375.151 190.821,375.362 190.930,375.362 191.063 C 375.362 191.196,375.530 191.304,375.736 191.304 C 377.296 191.304,379.348 195.107,379.149 197.626 C 378.999 199.523,378.748 200.725,378.501 200.725 C 378.398 200.725,378.248 200.984,378.169 201.300 C 378.004 201.959,376.755 203.382,376.342 203.382 C 376.191 203.382,375.833 203.599,375.548 203.865 C 375.263 204.130,374.785 204.348,374.486 204.348 C 374.186 204.348,373.874 204.457,373.792 204.589 C 373.710 204.722,372.997 204.831,372.208 204.831 C 371.412 204.831,370.773 204.939,370.773 205.072 C 370.773 205.222,369.444 205.314,367.271 205.314 L 363.768 205.314 363.768 197.585 L 363.768 189.855 367.860 189.855 C 370.328 189.855,372.011 189.951,372.101 190.097 M177.657 206.039 C 177.739 206.171,178.014 206.280,178.268 206.280 C 178.522 206.280,179.098 206.487,179.549 206.741 C 180.000 206.994,180.628 207.347,180.944 207.526 C 181.995 208.118,183.333 209.714,183.333 210.375 C 183.333 210.631,183.442 210.908,183.575 210.990 C 184.335 211.460,183.572 216.052,182.591 216.908 C 182.515 216.975,182.383 217.219,182.297 217.452 C 182.211 217.684,181.974 217.874,181.771 217.874 C 181.567 217.874,181.401 217.966,181.401 218.078 C 181.401 218.190,180.885 218.528,180.254 218.829 C 179.623 219.130,178.918 219.473,178.687 219.592 C 178.456 219.710,175.549 219.807,172.225 219.807 L 166.184 219.807 166.184 212.802 L 166.184 205.797 171.846 205.797 C 175.360 205.797,177.564 205.889,177.657 206.039 " stroke="none" fill="#0c4464" fill-rule="evenodd"></path><path id="path1" d="M338.889 5.173 C 338.889 5.373,335.193 12.904,330.676 21.910 C 326.159 30.915,322.464 38.365,322.464 38.465 C 322.464 38.565,333.986 38.647,348.068 38.647 C 364.976 38.647,373.671 38.565,373.671 38.406 C 373.671 38.273,374.052 38.164,374.517 38.164 C 374.982 38.164,375.362 38.056,375.362 37.923 C 375.362 37.790,375.688 37.681,376.087 37.681 C 376.486 37.681,376.812 37.572,376.812 37.440 C 376.812 37.307,377.029 37.198,377.295 37.198 C 377.560 37.198,377.778 37.089,377.778 36.957 C 377.778 36.824,377.971 36.715,378.208 36.715 C 378.444 36.715,378.794 36.498,378.986 36.232 C 379.177 35.966,379.468 35.749,379.631 35.749 C 380.079 35.749,383.816 32.087,383.816 31.648 C 383.816 31.438,384.034 31.109,384.300 30.918 C 384.565 30.726,384.783 30.376,384.783 30.140 C 384.783 29.904,384.891 29.710,385.024 29.710 C 385.157 29.710,385.266 29.493,385.266 29.227 C 385.266 28.961,385.374 28.744,385.507 28.744 C 385.640 28.744,385.749 28.527,385.749 28.261 C 385.749 27.995,385.857 27.778,385.990 27.778 C 386.123 27.778,386.232 27.560,386.232 27.295 C 386.232 27.029,386.341 26.812,386.473 26.812 C 386.606 26.812,386.715 26.594,386.715 26.329 C 386.715 26.063,386.824 25.845,386.957 25.845 C 387.089 25.845,387.198 25.574,387.198 25.242 C 387.198 24.909,387.307 24.638,387.440 24.638 C 387.572 24.638,387.681 24.420,387.681 24.155 C 387.681 23.889,387.790 23.671,387.923 23.671 C 388.056 23.671,388.164 23.454,388.164 23.188 C 388.164 22.923,388.273 22.705,388.406 22.705 C 388.539 22.705,388.647 22.488,388.647 22.222 C 388.647 21.957,388.756 21.739,388.889 21.739 C 389.022 21.739,389.130 21.522,389.130 21.256 C 389.130 20.990,389.229 20.773,389.350 20.773 C 389.600 20.773,390.821 18.428,390.821 17.948 C 390.821 17.775,390.930 17.633,391.063 17.633 C 391.196 17.633,391.304 17.415,391.304 17.150 C 391.304 16.884,391.413 16.667,391.546 16.667 C 391.679 16.667,391.787 16.449,391.787 16.184 C 391.787 15.918,391.896 15.700,392.029 15.700 C 392.162 15.700,392.271 15.483,392.271 15.217 C 392.271 14.952,392.379 14.734,392.512 14.734 C 392.645 14.734,392.754 14.517,392.754 14.251 C 392.754 13.986,392.862 13.768,392.995 13.768 C 393.128 13.768,393.237 13.551,393.237 13.285 C 393.237 13.019,393.345 12.802,393.478 12.802 C 393.611 12.802,393.720 12.585,393.720 12.319 C 393.720 12.053,393.829 11.836,393.961 11.836 C 394.094 11.836,394.203 11.625,394.203 11.367 C 394.203 11.109,394.312 10.831,394.444 10.749 C 394.577 10.667,394.686 10.389,394.686 10.131 C 394.686 9.873,394.795 9.662,394.928 9.662 C 395.060 9.662,395.169 9.444,395.169 9.179 C 395.169 8.913,395.278 8.696,395.411 8.696 C 395.543 8.696,395.652 8.478,395.652 8.213 C 395.652 7.947,395.761 7.729,395.894 7.729 C 396.027 7.729,396.135 7.524,396.135 7.272 C 396.135 7.021,396.298 6.752,396.498 6.676 C 396.697 6.599,396.860 6.262,396.860 5.925 L 396.860 5.314 370.787 5.314 C 355.878 5.314,344.658 5.222,344.582 5.100 C 344.329 4.690,338.889 4.759,338.889 5.173 M43.541 121.498 C 43.311 122.029,43.040 122.464,42.938 122.464 C 42.837 122.464,42.754 122.681,42.754 122.947 C 42.754 123.213,42.645 123.430,42.512 123.430 C 42.379 123.430,42.271 123.647,42.271 123.913 C 42.271 124.179,42.162 124.396,42.029 124.396 C 41.896 124.396,41.787 124.614,41.787 124.879 C 41.787 125.145,41.679 125.362,41.546 125.362 C 41.413 125.362,41.304 125.580,41.304 125.845 C 41.304 126.111,41.196 126.329,41.063 126.329 C 40.930 126.329,40.821 126.546,40.821 126.812 C 40.821 127.077,40.713 127.295,40.580 127.295 C 40.447 127.295,40.338 127.512,40.338 127.778 C 40.338 128.043,40.229 128.261,40.097 128.261 C 39.964 128.261,39.855 128.478,39.855 128.744 C 39.855 129.010,39.746 129.227,39.614 129.227 C 39.481 129.227,39.372 129.444,39.372 129.710 C 39.372 129.976,39.265 130.193,39.135 130.193 C 39.005 130.193,38.830 130.465,38.747 130.797 C 38.663 131.129,38.498 131.401,38.380 131.401 C 38.261 131.401,38.164 131.618,38.164 131.884 C 38.164 132.150,38.056 132.367,37.923 132.367 C 37.790 132.367,37.681 132.585,37.681 132.850 C 37.681 133.116,37.572 133.333,37.440 133.333 C 37.307 133.333,37.198 133.551,37.198 133.816 C 37.198 134.082,37.089 134.300,36.957 134.300 C 36.824 134.300,36.715 134.517,36.715 134.783 C 36.715 135.048,36.606 135.266,36.473 135.266 C 36.341 135.266,36.232 135.483,36.232 135.749 C 36.232 136.014,36.123 136.232,35.990 136.232 C 35.857 136.232,35.749 136.449,35.749 136.715 C 35.749 136.981,35.640 137.198,35.507 137.198 C 35.374 137.198,35.266 137.470,35.266 137.802 C 35.266 138.134,35.157 138.406,35.024 138.406 C 34.891 138.406,34.783 138.623,34.783 138.889 C 34.783 139.155,34.674 139.372,34.541 139.372 C 34.408 139.372,34.300 139.589,34.300 139.855 C 34.300 140.121,34.191 140.338,34.058 140.338 C 33.925 140.338,33.816 140.556,33.816 140.821 C 33.816 141.087,33.708 141.304,33.575 141.304 C 33.442 141.304,33.333 141.522,33.333 141.787 C 33.333 142.053,33.225 142.271,33.092 142.271 C 32.959 142.271,32.850 142.488,32.850 142.754 C 32.850 143.019,32.742 143.237,32.609 143.237 C 32.476 143.237,32.367 143.454,32.367 143.720 C 32.367 143.986,32.266 144.203,32.143 144.203 C 31.886 144.203,31.159 145.567,31.159 146.052 C 31.159 146.230,31.051 146.377,30.918 146.377 C 30.785 146.377,30.676 146.594,30.676 146.860 C 30.676 147.126,30.568 147.343,30.435 147.343 C 30.302 147.343,30.193 147.560,30.193 147.826 C 30.193 148.092,30.085 148.309,29.952 148.309 C 29.819 148.309,29.710 148.527,29.710 148.792 C 29.710 149.058,29.601 149.275,29.469 149.275 C 29.336 149.275,29.227 149.493,29.227 149.758 C 29.227 150.024,29.118 150.242,28.986 150.242 C 28.853 150.242,28.744 150.459,28.744 150.725 C 28.744 150.990,28.635 151.208,28.502 151.208 C 28.370 151.208,28.261 151.425,28.261 151.691 C 28.261 151.957,28.152 152.174,28.019 152.174 C 27.886 152.174,27.778 152.446,27.778 152.778 C 27.778 153.110,27.669 153.382,27.536 153.382 C 27.403 153.382,27.295 153.599,27.295 153.865 C 27.295 154.130,27.186 154.348,27.053 154.348 C 26.920 154.348,26.812 154.565,26.812 154.831 C 26.812 155.097,26.703 155.314,26.570 155.314 C 26.437 155.314,26.329 155.531,26.329 155.797 C 26.329 156.063,26.220 156.280,26.087 156.280 C 25.954 156.280,25.845 156.498,25.845 156.763 C 25.845 157.029,25.737 157.246,25.604 157.246 C 25.471 157.246,25.362 157.464,25.362 157.729 C 25.362 157.995,25.262 158.213,25.138 158.213 C 24.881 158.213,24.155 159.577,24.155 160.061 C 24.155 160.240,24.046 160.386,23.913 160.386 C 23.780 160.386,23.671 160.604,23.671 160.870 C 23.671 161.135,23.563 161.353,23.430 161.353 C 23.297 161.353,23.188 161.570,23.188 161.836 C 23.188 162.101,23.080 162.319,22.947 162.319 C 22.814 162.319,22.705 162.536,22.705 162.802 C 22.705 163.068,22.597 163.285,22.464 163.285 C 22.331 163.285,22.222 163.502,22.222 163.768 C 22.222 164.034,22.114 164.251,21.981 164.251 C 21.848 164.251,21.739 164.469,21.739 164.734 C 21.739 165.000,21.630 165.217,21.498 165.217 C 21.365 165.217,21.256 165.435,21.256 165.700 C 21.256 165.966,21.147 166.184,21.014 166.184 C 20.882 166.184,20.773 166.455,20.773 166.787 C 20.773 167.120,20.664 167.391,20.531 167.391 C 20.399 167.391,20.290 167.609,20.290 167.874 C 20.290 168.140,20.181 168.357,20.048 168.357 C 19.915 168.357,19.807 168.575,19.807 168.841 C 19.807 169.106,19.698 169.324,19.565 169.324 C 19.432 169.324,19.324 169.541,19.324 169.807 C 19.324 170.072,19.215 170.290,19.082 170.290 C 18.949 170.290,18.841 170.507,18.841 170.773 C 18.841 171.039,18.732 171.256,18.599 171.256 C 18.466 171.256,18.357 171.427,18.357 171.636 C 18.357 171.844,18.193 172.179,17.993 172.380 C 17.792 172.580,17.690 172.844,17.766 172.966 C 17.960 173.282,48.792 173.262,48.792 172.947 C 48.792 172.814,49.118 172.705,49.517 172.705 C 49.915 172.705,50.242 172.597,50.242 172.464 C 50.242 172.331,50.568 172.222,50.966 172.222 C 51.365 172.222,51.691 172.114,51.691 171.981 C 51.691 171.848,51.908 171.739,52.174 171.739 C 52.440 171.739,52.657 171.630,52.657 171.498 C 52.657 171.365,52.854 171.256,53.095 171.256 C 53.335 171.256,53.765 171.039,54.051 170.773 C 54.336 170.507,54.675 170.290,54.805 170.290 C 55.190 170.290,57.729 167.634,57.729 167.231 C 57.729 167.027,58.056 166.556,58.454 166.184 C 58.853 165.811,59.179 165.333,59.179 165.120 C 59.179 164.908,59.269 164.734,59.379 164.734 C 59.490 164.734,59.734 164.435,59.923 164.070 C 60.111 163.705,60.328 163.351,60.406 163.285 C 60.698 163.034,62.319 159.844,62.319 159.519 C 62.319 159.332,62.428 159.179,62.560 159.179 C 62.693 159.179,62.802 158.961,62.802 158.696 C 62.802 158.430,62.911 158.213,63.043 158.213 C 63.176 158.213,63.285 157.995,63.285 157.729 C 63.285 157.464,63.394 157.246,63.527 157.246 C 63.659 157.246,63.768 157.029,63.768 156.763 C 63.768 156.498,63.877 156.280,64.010 156.280 C 64.143 156.280,64.251 156.063,64.251 155.797 C 64.251 155.531,64.360 155.314,64.493 155.314 C 64.626 155.314,64.734 155.097,64.734 154.831 C 64.734 154.565,64.843 154.348,64.976 154.348 C 65.109 154.348,65.217 154.130,65.217 153.865 C 65.217 153.599,65.326 153.382,65.459 153.382 C 65.592 153.382,65.700 153.110,65.700 152.778 C 65.700 152.446,65.809 152.174,65.942 152.174 C 66.075 152.174,66.184 151.957,66.184 151.691 C 66.184 151.425,66.292 151.208,66.425 151.208 C 66.558 151.208,66.667 150.990,66.667 150.725 C 66.667 150.459,66.775 150.242,66.908 150.242 C 67.041 150.242,67.150 150.024,67.150 149.758 C 67.150 149.493,67.258 149.275,67.391 149.275 C 67.524 149.275,67.633 149.070,67.633 148.818 C 67.633 148.567,67.796 148.298,67.995 148.222 C 68.194 148.145,68.357 147.916,68.357 147.713 C 68.357 147.509,68.466 147.343,68.599 147.343 C 68.732 147.343,68.841 147.132,68.841 146.874 C 68.841 146.616,68.949 146.338,69.082 146.256 C 69.215 146.174,69.324 145.896,69.324 145.638 C 69.324 145.380,69.432 145.169,69.565 145.169 C 69.698 145.169,69.807 144.952,69.807 144.686 C 69.807 144.420,69.915 144.203,70.048 144.203 C 70.181 144.203,70.290 143.986,70.290 143.720 C 70.290 143.454,70.399 143.237,70.531 143.237 C 70.664 143.237,70.773 143.019,70.773 142.754 C 70.773 142.488,70.882 142.271,71.014 142.271 C 71.147 142.271,71.256 142.053,71.256 141.787 C 71.256 141.522,71.365 141.304,71.498 141.304 C 71.630 141.304,71.739 141.087,71.739 140.821 C 71.739 140.556,71.848 140.338,71.981 140.338 C 72.114 140.338,72.222 140.121,72.222 139.855 C 72.222 139.589,72.331 139.372,72.464 139.372 C 72.597 139.372,72.705 139.100,72.705 138.768 C 72.705 138.436,72.814 138.164,72.947 138.164 C 73.080 138.164,73.188 137.947,73.188 137.681 C 73.188 137.415,73.297 137.198,73.430 137.198 C 73.563 137.198,73.671 136.981,73.671 136.715 C 73.671 136.449,73.780 136.232,73.913 136.232 C 74.046 136.232,74.155 136.014,74.155 135.749 C 74.155 135.483,74.263 135.266,74.396 135.266 C 74.529 135.266,74.638 135.048,74.638 134.783 C 74.638 134.514,74.799 134.300,75.000 134.300 C 75.201 134.300,75.362 134.085,75.362 133.816 C 75.362 133.551,75.471 133.333,75.604 133.333 C 75.737 133.333,75.845 133.116,75.845 132.850 C 75.845 132.585,75.954 132.367,76.087 132.367 C 76.220 132.367,76.329 132.095,76.329 131.763 C 76.329 131.431,76.437 131.159,76.570 131.159 C 76.703 131.159,76.812 130.942,76.812 130.676 C 76.812 130.411,76.920 130.193,77.053 130.193 C 77.186 130.193,77.295 129.976,77.295 129.710 C 77.295 129.444,77.403 129.227,77.536 129.227 C 77.669 129.227,77.778 129.010,77.778 128.744 C 77.778 128.478,77.886 128.261,78.019 128.261 C 78.152 128.261,78.261 128.043,78.261 127.778 C 78.261 127.512,78.370 127.295,78.502 127.295 C 78.635 127.295,78.744 127.077,78.744 126.812 C 78.744 126.546,78.853 126.329,78.986 126.329 C 79.118 126.329,79.227 126.111,79.227 125.845 C 79.227 125.580,79.336 125.362,79.469 125.362 C 79.601 125.362,79.710 125.091,79.710 124.758 C 79.710 124.426,79.819 124.155,79.952 124.155 C 80.085 124.155,80.193 123.937,80.193 123.671 C 80.193 123.406,80.302 123.188,80.435 123.188 C 80.568 123.188,80.676 122.971,80.676 122.705 C 80.676 122.440,80.785 122.222,80.918 122.222 C 81.051 122.222,81.159 122.005,81.159 121.739 C 81.159 121.473,81.268 121.256,81.401 121.256 C 81.534 121.256,81.643 121.093,81.643 120.894 C 81.643 120.575,79.388 120.531,62.801 120.531 L 43.960 120.531 43.541 121.498 " stroke="none" fill="#f3543c" fill-rule="evenodd"></path><path id="path2" d="M293.961 5.273 C 293.961 5.516,292.810 7.989,291.403 10.768 C 286.092 21.257,277.778 37.890,277.778 38.024 C 277.778 38.101,282.104 38.164,287.391 38.164 C 294.748 38.164,297.081 38.235,297.330 38.466 C 297.590 38.708,297.621 38.708,297.485 38.466 C 297.290 38.120,297.961 38.037,298.173 38.381 C 298.249 38.503,303.532 38.608,310.325 38.622 L 322.343 38.647 330.626 22.041 C 335.182 12.907,338.905 5.299,338.899 5.133 C 338.880 4.565,293.961 4.706,293.961 5.273 M64.305 80.254 C 64.245 80.486,64.099 80.676,63.981 80.676 C 63.864 80.676,63.768 80.948,63.768 81.280 C 63.768 81.612,63.659 81.884,63.527 81.884 C 63.394 81.884,63.285 82.101,63.285 82.367 C 63.285 82.633,63.176 82.850,63.043 82.850 C 62.911 82.850,62.802 83.068,62.802 83.333 C 62.802 83.599,62.693 83.816,62.560 83.816 C 62.428 83.816,62.319 84.034,62.319 84.300 C 62.319 84.565,62.210 84.783,62.077 84.783 C 61.944 84.783,61.836 85.000,61.836 85.266 C 61.836 85.531,61.727 85.749,61.594 85.749 C 61.461 85.749,61.353 85.966,61.353 86.232 C 61.353 86.498,61.244 86.715,61.111 86.715 C 60.978 86.715,60.870 86.932,60.870 87.198 C 60.870 87.464,60.788 87.682,60.688 87.682 C 60.589 87.682,60.075 88.606,59.546 89.735 C 59.017 90.864,58.500 91.787,58.398 91.787 C 58.296 91.787,58.213 92.005,58.213 92.271 C 58.213 92.536,58.104 92.754,57.971 92.754 C 57.838 92.754,57.729 92.895,57.729 93.068 C 57.729 93.512,57.161 94.682,56.944 94.684 C 56.845 94.685,56.763 94.958,56.763 95.290 C 56.763 95.622,56.655 95.894,56.522 95.894 C 56.389 95.894,56.280 96.111,56.280 96.377 C 56.280 96.643,56.171 96.860,56.039 96.860 C 55.906 96.860,55.797 97.077,55.797 97.343 C 55.797 97.609,55.688 97.826,55.556 97.826 C 55.423 97.826,55.314 98.043,55.314 98.309 C 55.314 98.575,55.205 98.792,55.072 98.792 C 54.940 98.792,54.831 99.010,54.831 99.275 C 54.831 99.541,54.722 99.758,54.589 99.758 C 54.457 99.758,54.348 99.976,54.348 100.242 C 54.348 100.507,54.239 100.725,54.106 100.725 C 53.973 100.725,53.865 100.942,53.865 101.208 C 53.865 101.473,53.764 101.691,53.641 101.691 C 53.383 101.691,52.657 103.055,52.657 103.540 C 52.657 103.718,52.548 103.865,52.415 103.865 C 52.283 103.865,52.174 104.006,52.174 104.179 C 52.174 104.623,51.606 105.793,51.389 105.795 C 51.289 105.796,51.208 105.938,51.208 106.111 C 51.208 106.556,50.640 107.725,50.423 107.728 C 50.323 107.729,50.242 107.893,50.242 108.092 C 50.242 108.291,50.157 108.454,50.053 108.454 C 49.949 108.454,49.840 108.747,49.810 109.105 C 49.780 109.463,49.675 109.816,49.576 109.890 C 49.477 109.964,49.132 110.513,48.810 111.111 C 47.999 112.616,47.901 112.815,47.541 113.708 C 47.367 114.139,47.143 114.493,47.042 114.493 C 46.942 114.493,46.860 114.717,46.860 114.990 C 46.860 115.264,46.760 115.426,46.638 115.350 C 46.516 115.275,46.344 115.540,46.257 115.940 C 46.169 116.340,46.023 116.667,45.933 116.667 C 45.844 116.667,45.626 117.020,45.449 117.452 C 44.888 118.826,44.610 119.324,44.404 119.324 C 44.293 119.324,44.203 119.595,44.203 119.928 L 44.203 120.531 62.742 120.528 C 82.891 120.525,82.254 120.555,82.450 119.573 C 82.524 119.202,82.753 118.730,82.959 118.525 C 83.165 118.319,83.333 117.986,83.333 117.785 C 83.333 117.584,83.442 117.353,83.575 117.271 C 83.708 117.188,83.816 116.910,83.816 116.652 C 83.816 116.395,83.925 116.184,84.058 116.184 C 84.191 116.184,84.300 115.966,84.300 115.700 C 84.300 115.435,84.408 115.217,84.541 115.217 C 84.674 115.217,84.783 115.000,84.783 114.734 C 84.783 114.469,84.891 114.251,85.024 114.251 C 85.157 114.251,85.266 114.103,85.266 113.922 C 85.266 113.741,85.700 112.748,86.232 111.715 C 86.763 110.682,87.198 109.689,87.198 109.508 C 87.198 109.327,87.307 109.179,87.440 109.179 C 87.572 109.179,87.681 109.011,87.681 108.806 C 87.681 108.601,87.899 108.201,88.164 107.915 C 88.430 107.630,88.647 107.200,88.647 106.959 C 88.647 106.719,88.756 106.522,88.889 106.522 C 89.022 106.522,89.130 106.366,89.130 106.177 C 89.130 105.987,89.266 105.685,89.432 105.507 C 89.598 105.328,89.768 105.029,89.809 104.842 C 89.850 104.655,90.095 104.206,90.353 103.844 C 90.610 103.482,90.821 102.952,90.821 102.666 C 90.821 102.380,90.912 102.201,91.022 102.269 C 91.224 102.394,91.918 100.903,91.806 100.586 C 91.773 100.493,91.838 100.350,91.950 100.269 C 92.062 100.187,92.533 99.360,92.997 98.430 C 93.461 97.500,93.905 96.685,93.985 96.618 C 94.064 96.552,94.200 96.206,94.287 95.850 C 94.374 95.494,94.608 95.040,94.807 94.841 C 95.006 94.642,95.172 94.335,95.176 94.160 C 95.180 93.984,95.560 93.188,96.021 92.391 C 96.482 91.594,97.198 90.236,97.613 89.372 C 98.028 88.508,98.463 87.766,98.580 87.721 C 98.697 87.677,98.792 87.485,98.792 87.295 C 98.792 87.105,98.894 86.761,99.018 86.531 C 99.142 86.300,99.383 85.766,99.552 85.344 C 99.722 84.921,99.947 84.629,100.051 84.694 C 100.156 84.758,100.242 84.527,100.242 84.179 C 100.242 83.819,100.346 83.611,100.483 83.696 C 100.620 83.780,100.725 83.577,100.725 83.227 C 100.725 82.887,100.806 82.608,100.906 82.607 C 101.118 82.605,101.691 81.439,101.691 81.011 C 101.691 80.849,101.827 80.668,101.993 80.609 C 103.193 80.180,99.709 80.058,83.154 79.952 C 65.453 79.838,64.410 79.854,64.305 80.254 " stroke="none" fill="#5bc3d3" fill-rule="evenodd"></path><path id="path3" d="M142.754 4.589 C 142.754 4.730,141.948 4.831,140.821 4.831 C 139.694 4.831,138.889 4.932,138.889 5.072 C 138.889 5.205,138.291 5.314,137.560 5.314 C 136.830 5.314,136.232 5.423,136.232 5.556 C 136.232 5.688,135.688 5.797,135.024 5.797 C 134.360 5.797,133.816 5.906,133.816 6.039 C 133.816 6.171,133.382 6.280,132.850 6.280 C 132.319 6.280,131.884 6.389,131.884 6.522 C 131.884 6.655,131.395 6.763,130.797 6.763 C 130.199 6.763,129.710 6.872,129.710 7.005 C 129.710 7.138,129.336 7.246,128.879 7.246 C 128.422 7.246,127.981 7.355,127.899 7.488 C 127.816 7.621,127.439 7.729,127.059 7.729 C 126.679 7.729,126.333 7.837,126.288 7.969 C 126.244 8.101,125.909 8.233,125.543 8.263 C 125.178 8.293,124.879 8.403,124.879 8.507 C 124.879 8.611,124.607 8.696,124.275 8.696 C 123.943 8.696,123.671 8.804,123.671 8.937 C 123.671 9.070,123.400 9.179,123.068 9.179 C 122.736 9.179,122.464 9.287,122.464 9.420 C 122.464 9.553,122.253 9.662,121.995 9.662 C 121.737 9.662,121.464 9.762,121.388 9.885 C 121.313 10.007,120.926 10.179,120.529 10.266 C 120.132 10.354,119.807 10.525,119.807 10.647 C 119.807 10.770,119.589 10.870,119.324 10.870 C 119.058 10.870,118.841 10.978,118.841 11.111 C 118.841 11.244,118.623 11.353,118.357 11.353 C 118.092 11.353,117.874 11.461,117.874 11.594 C 117.874 11.727,117.663 11.836,117.406 11.836 C 117.148 11.836,116.870 11.944,116.787 12.077 C 116.705 12.210,116.427 12.319,116.169 12.319 C 115.911 12.319,115.700 12.428,115.700 12.560 C 115.700 12.693,115.483 12.802,115.217 12.802 C 114.952 12.802,114.734 12.911,114.734 13.043 C 114.734 13.176,114.517 13.285,114.251 13.285 C 113.986 13.285,113.768 13.394,113.768 13.527 C 113.768 13.659,113.551 13.768,113.285 13.768 C 113.019 13.768,112.802 13.877,112.802 14.010 C 112.802 14.143,112.585 14.251,112.319 14.251 C 112.053 14.251,111.836 14.360,111.836 14.493 C 111.836 14.626,111.731 14.734,111.603 14.734 C 111.229 14.734,107.246 17.398,107.246 17.648 C 107.246 17.773,107.053 17.874,106.817 17.874 C 106.580 17.874,106.230 18.092,106.039 18.357 C 105.847 18.623,105.565 18.841,105.411 18.841 C 105.257 18.841,104.683 19.275,104.135 19.807 C 103.588 20.338,103.032 20.773,102.901 20.773 C 102.770 20.773,102.435 20.963,102.156 21.196 C 101.878 21.428,101.360 21.863,101.006 22.162 C 100.652 22.460,100.254 22.708,100.121 22.712 C 99.988 22.715,99.607 23.085,99.275 23.534 C 98.943 23.982,98.590 24.299,98.490 24.237 C 98.391 24.176,98.309 24.244,98.309 24.388 C 98.309 24.650,96.265 26.812,96.017 26.812 C 95.851 26.812,91.787 30.869,91.787 31.035 C 91.787 31.103,91.353 31.607,90.821 32.154 C 90.290 32.702,89.855 33.253,89.855 33.380 C 89.855 33.677,89.232 34.300,88.935 34.300 C 88.809 34.300,88.574 34.618,88.413 35.007 C 88.252 35.396,87.913 35.902,87.659 36.131 C 87.406 36.361,87.198 36.667,87.197 36.813 C 87.196 36.958,86.870 37.425,86.472 37.849 C 86.074 38.274,85.749 38.766,85.749 38.943 C 85.749 39.120,85.531 39.422,85.266 39.614 C 85.000 39.805,84.783 40.155,84.783 40.391 C 84.783 40.628,84.674 40.821,84.541 40.821 C 84.408 40.821,84.300 41.015,84.300 41.251 C 84.300 41.487,84.082 41.837,83.816 42.029 C 83.551 42.220,83.333 42.571,83.333 42.807 C 83.333 43.043,83.225 43.237,83.092 43.237 C 82.959 43.237,82.850 43.454,82.850 43.720 C 82.850 43.986,82.742 44.203,82.609 44.203 C 82.476 44.203,82.367 44.386,82.367 44.610 C 82.367 44.834,82.159 45.242,81.904 45.516 C 81.342 46.121,79.227 50.163,79.227 50.631 C 79.227 50.816,79.118 50.966,78.986 50.966 C 78.853 50.966,78.744 51.190,78.744 51.464 C 78.744 51.737,78.635 51.894,78.502 51.812 C 78.370 51.729,78.261 51.880,78.261 52.145 C 78.261 52.411,78.152 52.696,78.019 52.778 C 77.886 52.860,77.778 53.138,77.778 53.396 C 77.778 53.654,77.669 53.865,77.536 53.865 C 77.403 53.865,77.295 54.082,77.295 54.348 C 77.295 54.614,77.186 54.831,77.053 54.831 C 76.920 54.831,76.812 55.048,76.812 55.314 C 76.812 55.580,76.703 55.797,76.570 55.797 C 76.437 55.797,76.329 55.938,76.329 56.111 C 76.329 56.556,75.760 57.725,75.543 57.728 C 75.444 57.729,75.362 57.990,75.362 58.307 C 75.362 58.625,75.184 58.954,74.965 59.038 C 74.747 59.122,74.637 59.259,74.722 59.343 C 74.806 59.428,74.779 59.615,74.662 59.760 C 74.237 60.286,71.256 66.250,71.256 66.575 C 71.256 66.758,71.147 66.908,71.014 66.908 C 70.882 66.908,70.773 67.126,70.773 67.391 C 70.773 67.657,70.664 67.874,70.531 67.874 C 70.399 67.874,70.290 68.092,70.290 68.357 C 70.290 68.623,70.181 68.841,70.048 68.841 C 69.915 68.841,69.807 69.058,69.807 69.324 C 69.807 69.589,69.698 69.807,69.565 69.807 C 69.432 69.807,69.324 70.024,69.324 70.290 C 69.324 70.556,69.215 70.773,69.082 70.773 C 68.949 70.773,68.841 70.990,68.841 71.256 C 68.841 71.522,68.732 71.739,68.599 71.739 C 68.466 71.739,68.350 71.929,68.340 72.162 C 68.330 72.394,68.120 72.911,67.872 73.309 C 67.624 73.708,67.011 74.849,66.509 75.845 C 66.007 76.842,65.511 77.693,65.407 77.738 C 65.303 77.782,65.217 78.020,65.217 78.267 C 65.217 78.514,65.109 78.783,64.976 78.865 C 64.843 78.947,64.734 79.225,64.734 79.483 C 64.734 79.943,65.081 79.952,82.911 79.955 C 92.908 79.957,101.332 80.024,101.630 80.104 C 102.069 80.221,102.174 80.151,102.174 79.738 C 102.174 79.457,102.283 79.227,102.415 79.227 C 102.548 79.227,102.657 79.010,102.657 78.744 C 102.657 78.478,102.766 78.261,102.899 78.261 C 103.031 78.261,103.140 78.037,103.140 77.764 C 103.140 77.490,103.250 77.334,103.383 77.417 C 103.517 77.499,103.695 77.370,103.778 77.129 C 104.146 76.061,105.906 72.705,106.097 72.705 C 106.214 72.705,106.247 72.605,106.171 72.483 C 106.096 72.361,106.171 72.114,106.338 71.934 C 106.506 71.754,106.678 71.446,106.721 71.250 C 106.764 71.054,106.900 70.857,107.023 70.813 C 107.146 70.769,107.246 70.464,107.246 70.135 C 107.246 69.806,107.333 69.590,107.438 69.655 C 107.543 69.720,107.647 69.538,107.669 69.250 C 107.690 68.962,107.822 68.689,107.960 68.643 C 108.099 68.597,108.213 68.350,108.213 68.096 C 108.213 67.841,108.321 67.633,108.454 67.633 C 108.587 67.633,108.696 67.415,108.696 67.150 C 108.696 66.884,108.804 66.667,108.937 66.667 C 109.070 66.667,109.179 66.525,109.179 66.353 C 109.179 65.908,109.747 64.738,109.964 64.736 C 110.063 64.735,110.145 64.526,110.145 64.271 C 110.145 64.017,110.236 63.772,110.348 63.728 C 110.459 63.684,111.074 62.642,111.715 61.413 C 112.355 60.184,112.970 59.179,113.082 59.179 C 113.194 59.179,113.285 58.961,113.285 58.696 C 113.285 58.430,113.394 58.213,113.527 58.213 C 113.659 58.213,113.768 58.070,113.768 57.896 C 113.768 57.722,113.986 57.346,114.251 57.060 C 114.517 56.775,114.734 56.422,114.734 56.276 C 114.734 56.130,114.843 56.077,114.976 56.159 C 115.109 56.242,115.217 56.138,115.217 55.930 C 115.217 55.722,115.543 55.210,115.942 54.793 C 116.341 54.376,116.667 53.883,116.667 53.697 C 116.667 53.386,117.703 52.174,117.969 52.174 C 118.033 52.174,119.238 51.033,120.647 49.638 C 122.055 48.243,123.295 47.101,123.403 47.101 C 123.716 47.101,124.638 46.225,124.638 45.926 C 124.638 45.775,124.801 45.652,125.000 45.652 C 125.199 45.652,125.362 45.543,125.362 45.411 C 125.362 45.278,125.556 45.169,125.792 45.169 C 126.028 45.169,126.379 44.952,126.570 44.686 C 126.762 44.420,127.088 44.203,127.295 44.203 C 127.502 44.203,127.828 43.986,128.019 43.720 C 128.211 43.454,128.561 43.237,128.797 43.237 C 129.034 43.237,129.227 43.128,129.227 42.995 C 129.227 42.862,129.435 42.754,129.690 42.754 C 129.945 42.754,130.189 42.671,130.233 42.570 C 130.392 42.210,134.982 40.077,136.896 39.474 C 137.594 39.255,138.164 38.979,138.164 38.861 C 138.164 38.744,138.490 38.647,138.889 38.647 C 139.287 38.647,139.614 38.539,139.614 38.406 C 139.614 38.273,140.103 38.164,140.700 38.164 C 141.298 38.164,141.787 38.056,141.787 37.923 C 141.787 37.790,142.222 37.681,142.754 37.681 C 143.285 37.681,143.720 37.572,143.720 37.440 C 143.720 37.299,144.520 37.198,145.638 37.198 C 146.693 37.198,147.623 37.089,147.705 36.957 C 147.796 36.810,149.515 36.715,152.053 36.715 C 154.592 36.715,156.311 36.810,156.401 36.957 C 156.483 37.089,157.305 37.198,158.227 37.198 C 159.183 37.198,159.903 37.302,159.903 37.440 C 159.903 37.572,160.447 37.681,161.111 37.681 C 161.775 37.681,162.319 37.790,162.319 37.923 C 162.319 38.056,162.754 38.164,163.285 38.164 C 163.816 38.164,164.251 38.273,164.251 38.406 C 164.251 38.539,164.577 38.647,164.976 38.647 C 165.374 38.647,165.700 38.754,165.700 38.884 C 165.700 39.015,165.999 39.188,166.365 39.270 C 166.730 39.351,167.490 39.625,168.053 39.878 C 168.616 40.131,169.241 40.338,169.442 40.338 C 169.643 40.338,169.807 40.447,169.807 40.580 C 169.807 40.713,170.133 40.821,170.531 40.821 C 170.930 40.821,171.256 40.910,171.256 41.018 C 171.256 41.126,171.636 41.363,172.101 41.546 C 172.566 41.728,172.947 41.966,172.947 42.074 C 172.947 42.182,173.164 42.271,173.430 42.271 C 173.696 42.271,173.913 42.379,173.913 42.512 C 173.913 42.645,174.130 42.754,174.396 42.754 C 174.662 42.754,174.879 42.844,174.879 42.954 C 174.879 43.065,175.178 43.309,175.543 43.498 C 175.909 43.686,176.418 44.031,176.676 44.263 C 176.934 44.496,177.287 44.686,177.461 44.686 C 177.635 44.686,177.778 44.795,177.778 44.928 C 177.778 45.060,177.938 45.169,178.133 45.169 C 178.328 45.169,179.009 45.685,179.646 46.316 C 180.844 47.503,181.800 48.309,182.010 48.309 C 182.279 48.309,187.198 53.398,187.204 53.681 C 187.209 53.954,187.945 54.897,189.366 56.453 C 189.635 56.747,189.855 57.131,189.855 57.305 C 189.855 57.480,190.072 57.780,190.338 57.971 C 190.604 58.163,190.821 58.513,190.821 58.749 C 190.821 58.985,190.930 59.179,191.063 59.179 C 191.196 59.179,191.304 59.346,191.304 59.551 C 191.304 59.756,191.522 60.157,191.787 60.442 C 192.053 60.727,192.271 61.158,192.271 61.398 C 192.271 61.639,192.352 61.837,192.452 61.838 C 192.669 61.840,193.237 63.010,193.237 63.454 C 193.237 63.627,193.345 63.768,193.478 63.768 C 193.611 63.768,193.720 64.033,193.720 64.358 C 193.720 64.682,193.829 65.015,193.961 65.097 C 194.094 65.179,194.203 65.457,194.203 65.715 C 194.203 65.973,194.312 66.184,194.444 66.184 C 194.577 66.184,194.686 66.488,194.686 66.860 C 194.686 67.232,194.778 67.639,194.890 67.766 C 195.002 67.892,195.284 68.620,195.516 69.384 C 195.748 70.148,196.026 70.773,196.134 70.773 C 196.241 70.773,196.305 71.111,196.277 71.525 C 196.248 71.939,196.368 72.420,196.542 72.595 C 196.717 72.769,196.860 73.348,196.860 73.882 C 196.860 74.415,196.969 74.918,197.101 75.000 C 197.234 75.082,197.343 75.958,197.343 76.947 C 197.343 77.984,197.445 78.744,197.585 78.744 C 197.737 78.744,197.826 80.359,197.826 83.106 C 197.826 85.953,197.742 87.416,197.585 87.319 C 197.432 87.224,197.343 87.835,197.343 88.981 C 197.343 89.978,197.234 90.860,197.101 90.942 C 196.969 91.024,196.860 91.574,196.860 92.164 C 196.860 92.754,196.763 93.237,196.644 93.237 C 196.525 93.237,196.373 93.644,196.305 94.143 C 196.177 95.093,195.199 98.102,194.951 98.309 C 194.872 98.376,194.775 98.647,194.737 98.913 C 194.698 99.179,194.562 99.641,194.435 99.940 C 194.307 100.239,194.082 100.782,193.933 101.147 C 193.785 101.513,193.567 102.000,193.450 102.231 C 193.333 102.462,193.237 102.815,193.237 103.016 C 193.237 103.217,193.128 103.382,192.995 103.382 C 192.862 103.382,192.754 103.599,192.754 103.865 C 192.754 104.130,192.645 104.348,192.512 104.348 C 192.379 104.348,192.271 104.565,192.271 104.831 C 192.271 105.097,192.162 105.314,192.029 105.314 C 191.896 105.314,191.787 105.531,191.787 105.797 C 191.787 106.063,191.696 106.280,191.584 106.280 C 191.472 106.280,191.119 106.796,190.799 107.428 C 190.480 108.059,190.028 108.786,189.795 109.043 C 189.562 109.301,189.372 109.615,189.372 109.742 C 189.372 109.868,189.046 110.283,188.647 110.664 C 188.249 111.045,187.923 111.461,187.923 111.588 C 187.923 111.716,187.568 112.177,187.134 112.613 C 186.700 113.049,186.077 113.786,185.749 114.251 C 185.039 115.258,183.669 116.667,183.399 116.667 C 183.294 116.667,182.883 117.045,182.486 117.507 C 182.088 117.969,181.683 118.349,181.584 118.352 C 181.486 118.355,181.094 118.684,180.713 119.082 C 180.332 119.481,179.912 119.807,179.780 119.807 C 179.648 119.807,179.223 120.106,178.836 120.471 C 178.449 120.836,177.835 121.290,177.472 121.478 C 177.109 121.667,176.812 121.911,176.812 122.021 C 176.812 122.132,176.594 122.222,176.329 122.222 C 176.063 122.222,175.845 122.304,175.845 122.403 C 175.844 122.503,175.246 122.907,174.516 123.301 C 173.786 123.695,173.188 124.102,173.188 124.207 C 173.188 124.311,172.971 124.396,172.705 124.396 C 172.440 124.396,172.222 124.505,172.222 124.638 C 172.222 124.771,172.005 124.879,171.739 124.879 C 171.473 124.879,171.256 124.988,171.256 125.121 C 171.256 125.254,171.039 125.362,170.773 125.362 C 170.507 125.362,170.290 125.471,170.290 125.604 C 170.290 125.737,169.964 125.845,169.565 125.845 C 169.167 125.845,168.841 125.954,168.841 126.087 C 168.841 126.220,168.623 126.329,168.357 126.329 C 168.092 126.329,167.874 126.437,167.874 126.570 C 167.874 126.703,167.555 126.812,167.164 126.812 C 166.773 126.812,166.386 126.920,166.304 127.053 C 166.222 127.186,165.781 127.295,165.324 127.295 C 164.867 127.295,164.493 127.403,164.493 127.536 C 164.493 127.669,164.080 127.778,163.575 127.778 C 163.070 127.778,162.554 127.875,162.428 127.995 C 162.142 128.264,160.611 128.498,158.092 128.657 C 157.029 128.724,156.056 128.880,155.930 129.003 C 155.794 129.135,149.950 129.227,141.633 129.227 C 132.515 129.227,127.512 129.312,127.415 129.469 C 127.333 129.601,126.947 129.710,126.556 129.710 C 126.165 129.710,125.845 129.819,125.845 129.952 C 125.845 130.085,125.519 130.193,125.121 130.193 C 124.722 130.193,124.396 130.302,124.396 130.435 C 124.396 130.568,124.246 130.676,124.063 130.676 C 123.880 130.676,123.595 130.839,123.430 131.039 C 123.265 131.238,122.949 131.401,122.729 131.401 C 122.509 131.401,122.172 131.618,121.981 131.884 C 121.789 132.150,121.488 132.367,121.312 132.367 C 120.819 132.367,116.667 136.724,116.667 137.242 C 116.667 137.376,116.466 137.774,116.222 138.127 C 115.977 138.480,115.624 139.121,115.438 139.553 C 115.252 139.985,115.017 140.338,114.917 140.338 C 114.816 140.338,114.734 140.556,114.734 140.821 C 114.734 141.087,114.626 141.304,114.493 141.304 C 114.360 141.304,114.251 141.522,114.251 141.787 C 114.251 142.053,114.143 142.271,114.010 142.271 C 113.877 142.271,113.768 142.423,113.768 142.608 C 113.768 142.794,113.442 143.566,113.043 144.324 C 112.645 145.081,112.319 145.853,112.319 146.039 C 112.319 146.225,112.210 146.377,112.077 146.377 C 111.944 146.377,111.836 146.594,111.836 146.860 C 111.836 147.126,111.727 147.343,111.594 147.343 C 111.461 147.343,111.353 147.560,111.353 147.826 C 111.353 148.092,111.244 148.309,111.111 148.309 C 110.978 148.309,110.870 148.518,110.870 148.772 C 110.870 149.027,110.777 149.271,110.665 149.316 C 110.373 149.430,109.179 151.638,109.179 152.062 C 109.179 152.256,109.070 152.415,108.937 152.415 C 108.804 152.415,108.696 152.633,108.696 152.899 C 108.696 153.164,108.587 153.382,108.454 153.382 C 108.321 153.382,108.213 153.599,108.213 153.865 C 108.213 154.130,108.104 154.348,107.971 154.348 C 107.838 154.348,107.729 154.565,107.729 154.831 C 107.729 155.097,107.621 155.314,107.488 155.314 C 107.355 155.314,107.246 155.531,107.246 155.797 C 107.246 156.063,107.138 156.280,107.005 156.280 C 106.872 156.280,106.763 156.552,106.763 156.884 C 106.763 157.216,106.655 157.488,106.522 157.488 C 106.389 157.488,106.280 157.712,106.280 157.985 C 106.280 158.259,106.171 158.415,106.039 158.333 C 105.902 158.249,105.797 158.452,105.797 158.802 C 105.797 159.142,105.688 159.420,105.556 159.420 C 105.423 159.420,105.314 159.631,105.314 159.889 C 105.314 160.147,105.205 160.425,105.072 160.507 C 104.940 160.589,104.831 160.922,104.831 161.246 L 104.831 161.836 122.222 161.836 C 132.088 161.836,139.614 161.928,139.614 162.049 C 139.614 162.167,144.095 162.272,149.770 162.286 C 155.837 162.301,159.872 162.222,159.791 162.091 C 159.715 161.967,160.588 161.816,161.772 161.747 C 164.594 161.583,166.254 161.353,166.534 161.088 C 166.660 160.968,167.178 160.870,167.684 160.870 C 168.191 160.870,168.794 160.767,169.025 160.641 C 169.256 160.516,169.852 160.348,170.350 160.268 C 170.848 160.188,171.256 160.019,171.256 159.892 C 171.256 159.766,171.691 159.662,172.222 159.662 C 172.754 159.662,173.188 159.553,173.188 159.420 C 173.188 159.287,173.623 159.179,174.155 159.179 C 174.686 159.179,175.121 159.070,175.121 158.937 C 175.121 158.804,175.393 158.696,175.725 158.696 C 176.057 158.696,176.329 158.587,176.329 158.454 C 176.329 158.321,176.655 158.213,177.053 158.213 C 177.452 158.213,177.778 158.104,177.778 157.971 C 177.778 157.838,178.104 157.729,178.502 157.729 C 178.901 157.729,179.227 157.621,179.227 157.488 C 179.227 157.355,179.553 157.246,179.952 157.246 C 180.350 157.246,180.676 157.138,180.676 157.005 C 180.676 156.872,181.002 156.763,181.401 156.763 C 181.800 156.763,182.126 156.655,182.126 156.522 C 182.126 156.389,182.278 156.280,182.463 156.280 C 182.649 156.280,183.421 155.954,184.179 155.556 C 184.936 155.157,185.708 154.831,185.894 154.831 C 186.080 154.831,186.232 154.722,186.232 154.589 C 186.232 154.457,186.440 154.348,186.695 154.348 C 186.949 154.348,187.194 154.266,187.238 154.167 C 187.355 153.903,189.357 152.899,189.765 152.899 C 189.956 152.899,190.174 152.736,190.251 152.536 C 190.327 152.337,190.521 152.174,190.681 152.174 C 190.841 152.174,191.205 151.957,191.490 151.691 C 191.775 151.425,192.152 151.208,192.328 151.208 C 192.503 151.208,192.804 150.990,192.995 150.725 C 193.187 150.459,193.537 150.242,193.773 150.242 C 194.010 150.242,194.203 150.133,194.203 150.000 C 194.203 149.867,194.345 149.758,194.520 149.758 C 194.694 149.758,195.047 149.562,195.305 149.322 C 195.562 149.082,196.118 148.733,196.541 148.546 C 196.963 148.360,197.255 148.121,197.191 148.016 C 197.126 147.912,197.242 147.826,197.450 147.826 C 197.657 147.826,197.826 147.717,197.826 147.585 C 197.826 147.452,197.941 147.343,198.081 147.343 C 198.221 147.343,198.683 147.017,199.107 146.619 C 199.532 146.222,199.963 145.895,200.065 145.895 C 200.167 145.894,200.620 145.513,201.071 145.048 C 201.523 144.583,202.005 144.203,202.143 144.203 C 202.510 144.203,208.213 138.859,208.213 138.515 C 208.213 138.429,208.865 137.736,209.662 136.975 C 210.459 136.215,211.111 135.512,211.111 135.413 C 211.111 135.315,211.682 134.662,212.379 133.964 C 213.077 133.265,213.810 132.375,214.010 131.987 C 214.944 130.166,215.434 130.224,216.753 132.312 C 217.107 132.873,217.613 133.468,217.877 133.633 C 218.141 133.798,218.357 134.074,218.357 134.247 C 218.357 134.420,219.227 135.422,220.290 136.473 C 221.353 137.525,222.222 138.437,222.222 138.500 C 222.222 138.653,224.876 141.304,225.029 141.304 C 225.094 141.304,225.788 141.957,226.570 142.754 C 227.352 143.551,228.119 144.203,228.275 144.203 C 228.430 144.203,229.104 144.801,229.773 145.531 C 230.442 146.262,231.121 146.860,231.280 146.860 C 231.440 146.860,231.912 147.186,232.329 147.585 C 232.746 147.983,233.198 148.309,233.333 148.309 C 233.469 148.309,233.920 148.635,234.338 149.034 C 234.755 149.432,235.219 149.758,235.369 149.758 C 235.519 149.758,235.799 149.976,235.990 150.242 C 236.182 150.507,236.532 150.725,236.768 150.725 C 237.005 150.725,237.198 150.833,237.198 150.966 C 237.198 151.099,237.361 151.208,237.560 151.208 C 237.760 151.208,237.923 151.316,237.923 151.449 C 237.923 151.582,238.140 151.691,238.406 151.691 C 238.671 151.691,238.889 151.800,238.889 151.932 C 238.889 152.065,239.095 152.174,239.346 152.174 C 239.598 152.174,239.866 152.337,239.942 152.536 C 240.019 152.736,240.235 152.899,240.422 152.899 C 240.609 152.899,240.896 153.060,241.061 153.258 C 241.225 153.456,241.455 153.558,241.573 153.486 C 241.691 153.413,241.787 153.448,241.787 153.564 C 241.787 153.826,243.637 154.831,244.119 154.831 C 244.314 154.831,244.404 154.942,244.320 155.078 C 244.236 155.215,244.257 155.300,244.366 155.268 C 244.694 155.172,246.860 155.887,246.860 156.091 C 246.860 156.195,247.077 156.280,247.343 156.280 C 247.609 156.280,247.826 156.389,247.826 156.522 C 247.826 156.655,248.043 156.763,248.309 156.763 C 248.575 156.763,248.792 156.872,248.792 157.005 C 248.792 157.138,249.010 157.246,249.275 157.246 C 249.541 157.246,249.758 157.355,249.758 157.488 C 249.758 157.621,250.085 157.729,250.483 157.729 C 250.882 157.729,251.208 157.838,251.208 157.971 C 251.208 158.104,251.595 158.213,252.067 158.213 C 252.579 158.213,252.867 158.310,252.778 158.454 C 252.689 158.598,252.977 158.696,253.488 158.696 C 253.961 158.696,254.348 158.804,254.348 158.937 C 254.348 159.070,254.674 159.179,255.072 159.179 C 255.471 159.179,255.797 159.287,255.797 159.420 C 255.797 159.553,256.123 159.662,256.522 159.662 C 256.920 159.662,257.246 159.756,257.246 159.871 C 257.246 160.117,260.209 160.871,261.171 160.870 C 261.537 160.870,261.836 160.978,261.836 161.111 C 261.836 161.244,262.249 161.353,262.754 161.353 C 263.258 161.353,263.775 161.451,263.901 161.572 C 264.126 161.787,265.300 161.962,268.297 162.227 C 269.127 162.300,269.807 162.459,269.807 162.581 C 269.807 162.704,271.258 162.802,273.068 162.802 C 275.081 162.802,276.329 162.894,276.329 163.043 C 276.329 163.192,277.536 163.285,279.469 163.285 C 281.401 163.285,282.609 163.192,282.609 163.043 C 282.609 162.894,283.892 162.802,285.976 162.802 C 287.960 162.802,289.405 162.703,289.493 162.560 C 289.575 162.428,290.281 162.319,291.063 162.319 C 291.844 162.319,292.551 162.210,292.633 162.077 C 292.715 161.944,293.367 161.836,294.082 161.836 C 294.797 161.836,295.449 161.727,295.531 161.594 C 295.614 161.461,296.033 161.353,296.464 161.353 C 296.894 161.353,297.350 161.253,297.476 161.131 C 297.602 161.010,298.086 160.880,298.551 160.842 C 299.016 160.805,299.505 160.699,299.638 160.608 C 299.771 160.517,300.232 160.367,300.664 160.274 C 301.096 160.182,301.449 160.006,301.449 159.884 C 301.449 159.762,301.830 159.662,302.295 159.662 C 302.760 159.662,303.140 159.553,303.140 159.420 C 303.140 159.287,303.521 159.179,303.986 159.179 C 304.450 159.179,304.831 159.070,304.831 158.937 C 304.831 158.804,305.157 158.696,305.556 158.696 C 305.954 158.696,306.280 158.587,306.280 158.454 C 306.280 158.321,306.606 158.213,307.005 158.213 C 307.403 158.213,307.729 158.124,307.729 158.015 C 307.729 157.906,308.273 157.669,308.937 157.488 C 309.601 157.307,310.145 157.070,310.145 156.961 C 310.145 156.852,310.413 156.763,310.741 156.763 C 311.070 156.763,311.725 156.546,312.198 156.280 C 312.671 156.014,313.218 155.797,313.413 155.797 C 313.608 155.797,313.768 155.688,313.768 155.556 C 313.768 155.423,313.986 155.314,314.251 155.314 C 314.517 155.314,314.735 155.232,314.736 155.133 C 314.738 154.943,315.885 154.348,316.249 154.348 C 316.365 154.348,316.624 154.184,316.824 153.983 C 317.025 153.783,317.289 153.681,317.411 153.756 C 317.533 153.831,317.633 153.791,317.633 153.665 C 317.633 153.539,318.013 153.256,318.478 153.036 C 318.943 152.815,319.324 152.531,319.324 152.404 C 319.324 152.278,319.517 152.174,319.753 152.174 C 319.990 152.174,320.340 151.957,320.531 151.691 C 320.723 151.425,321.026 151.208,321.206 151.208 C 321.385 151.208,321.696 151.044,321.897 150.843 C 322.097 150.643,322.378 150.551,322.521 150.639 C 322.674 150.734,322.710 150.686,322.608 150.520 C 322.505 150.355,322.589 150.242,322.812 150.242 C 323.019 150.242,323.188 150.133,323.188 150.000 C 323.188 149.867,323.366 149.758,323.583 149.758 C 323.800 149.758,324.153 149.567,324.368 149.334 C 324.583 149.101,325.080 148.747,325.473 148.549 C 325.865 148.351,326.463 147.915,326.801 147.580 C 327.139 147.245,327.702 146.826,328.053 146.647 C 328.404 146.469,328.830 146.064,329.000 145.746 C 329.170 145.429,329.462 145.169,329.649 145.169 C 329.836 145.169,330.407 144.734,330.918 144.203 C 331.428 143.671,331.904 143.237,331.974 143.237 C 332.045 143.237,332.646 142.693,333.310 142.029 C 333.975 141.365,334.581 140.821,334.658 140.821 C 334.933 140.821,337.198 138.476,337.198 138.191 C 337.198 138.031,337.986 137.109,338.949 136.142 C 339.912 135.176,341.027 133.975,341.425 133.473 C 341.824 132.971,342.286 132.416,342.452 132.239 C 342.618 132.063,342.754 131.797,342.754 131.649 C 342.754 131.500,343.025 131.107,343.357 130.775 C 343.690 130.443,343.961 130.072,343.961 129.952 C 343.961 129.831,344.233 129.460,344.565 129.128 C 344.897 128.796,345.169 128.380,345.169 128.204 C 345.169 128.028,345.386 127.728,345.652 127.536 C 345.918 127.345,346.135 127.099,346.135 126.990 C 346.135 126.881,346.357 126.554,346.628 126.263 C 346.899 125.972,347.182 125.488,347.258 125.186 C 347.333 124.884,347.492 124.638,347.611 124.638 C 347.729 124.638,347.826 124.475,347.826 124.275 C 347.826 124.076,347.935 123.913,348.068 123.913 C 348.200 123.913,348.309 123.750,348.309 123.551 C 348.309 123.351,348.418 123.188,348.551 123.188 C 348.684 123.188,348.792 123.011,348.792 122.794 C 348.792 122.577,348.982 122.224,349.215 122.009 C 349.447 121.794,349.673 121.455,349.716 121.256 C 349.759 121.057,349.895 120.857,350.018 120.813 C 350.141 120.769,350.242 120.524,350.242 120.270 C 350.242 120.015,350.350 119.807,350.483 119.807 C 350.616 119.807,350.725 119.589,350.725 119.324 C 350.725 119.058,350.833 118.841,350.966 118.841 C 351.099 118.841,351.208 118.630,351.208 118.372 C 351.208 118.114,351.316 117.836,351.449 117.754 C 351.582 117.672,351.691 117.393,351.691 117.136 C 351.691 116.878,351.800 116.667,351.932 116.667 C 352.065 116.667,352.174 116.449,352.174 116.184 C 352.174 115.918,352.283 115.700,352.415 115.700 C 352.548 115.700,352.657 115.483,352.657 115.217 C 352.657 114.952,352.766 114.734,352.899 114.734 C 353.031 114.734,353.140 114.517,353.140 114.251 C 353.140 113.983,353.301 113.768,353.502 113.768 C 353.702 113.768,353.865 113.627,353.865 113.454 C 353.865 113.010,354.433 111.840,354.650 111.838 C 354.749 111.837,354.831 111.625,354.831 111.367 C 354.831 111.109,354.940 110.831,355.072 110.749 C 355.205 110.667,355.314 110.389,355.314 110.131 C 355.314 109.873,355.423 109.662,355.556 109.662 C 355.688 109.662,355.797 109.444,355.797 109.179 C 355.797 108.913,355.906 108.696,356.039 108.696 C 356.171 108.696,356.280 108.478,356.280 108.213 C 356.280 107.947,356.389 107.729,356.522 107.729 C 356.655 107.729,356.763 107.512,356.763 107.246 C 356.763 106.981,356.872 106.763,357.005 106.763 C 357.138 106.763,357.246 106.546,357.246 106.280 C 357.246 106.014,357.355 105.797,357.488 105.797 C 357.621 105.797,357.729 105.578,357.729 105.311 C 357.729 105.043,357.825 104.636,357.943 104.405 C 358.060 104.174,358.290 103.659,358.454 103.261 C 358.618 102.862,358.848 102.347,358.965 102.117 C 359.083 101.886,359.179 101.479,359.179 101.211 C 359.179 100.944,359.287 100.725,359.420 100.725 C 359.553 100.725,359.662 100.507,359.662 100.242 C 359.662 99.976,359.771 99.758,359.903 99.758 C 360.036 99.758,360.145 99.324,360.145 98.792 L 360.145 97.826 346.256 97.826 C 337.158 97.826,332.367 97.909,332.367 98.068 C 332.367 98.200,331.878 98.309,331.280 98.309 C 330.682 98.309,330.193 98.418,330.193 98.551 C 330.193 98.684,329.867 98.792,329.469 98.792 C 329.070 98.792,328.744 98.901,328.744 99.034 C 328.744 99.167,328.442 99.275,328.073 99.275 C 327.678 99.275,327.258 99.475,327.053 99.758 C 326.862 100.024,326.512 100.242,326.275 100.242 C 326.039 100.242,325.845 100.350,325.845 100.483 C 325.845 100.616,325.671 100.725,325.457 100.725 C 325.039 100.725,319.807 105.863,319.807 106.274 C 319.807 106.410,319.718 106.522,319.610 106.522 C 319.502 106.522,319.265 106.902,319.082 107.367 C 318.900 107.832,318.662 108.213,318.554 108.213 C 318.446 108.213,318.357 108.381,318.357 108.586 C 318.357 108.791,318.113 109.221,317.814 109.540 C 316.908 110.509,316.667 110.838,316.667 111.101 C 316.667 111.239,316.576 111.353,316.466 111.353 C 316.356 111.353,316.122 111.621,315.946 111.948 C 315.771 112.276,315.519 112.476,315.385 112.394 C 315.252 112.312,315.214 112.360,315.302 112.502 C 315.390 112.644,315.053 113.189,314.554 113.714 C 312.986 115.363,312.319 116.171,312.319 116.423 C 312.319 116.557,312.210 116.667,312.077 116.667 C 311.944 116.667,311.836 116.780,311.836 116.919 C 311.836 117.218,310.738 118.357,310.451 118.357 C 310.341 118.357,310.095 118.575,309.903 118.841 C 309.712 119.106,309.405 119.324,309.222 119.324 C 309.039 119.324,308.585 119.650,308.213 120.048 C 307.840 120.447,307.432 120.773,307.306 120.773 C 307.180 120.773,306.761 121.072,306.375 121.437 C 305.989 121.803,305.157 122.363,304.527 122.683 C 303.897 123.003,303.382 123.344,303.382 123.442 C 303.382 123.539,303.110 123.687,302.778 123.771 C 302.446 123.854,302.174 124.029,302.174 124.159 C 302.174 124.290,301.957 124.396,301.691 124.396 C 301.425 124.396,301.208 124.505,301.208 124.638 C 301.208 124.771,300.990 124.879,300.725 124.879 C 300.459 124.879,300.242 124.988,300.242 125.121 C 300.242 125.254,300.024 125.362,299.758 125.362 C 299.493 125.362,299.275 125.471,299.275 125.604 C 299.275 125.737,299.058 125.845,298.792 125.845 C 298.527 125.845,298.309 125.954,298.309 126.087 C 298.309 126.220,298.092 126.329,297.826 126.329 C 297.560 126.329,297.343 126.437,297.343 126.570 C 297.343 126.703,296.956 126.812,296.483 126.812 C 295.972 126.812,295.684 126.909,295.773 127.053 C 295.860 127.194,295.614 127.295,295.183 127.295 C 294.777 127.295,294.444 127.403,294.444 127.536 C 294.444 127.669,294.173 127.778,293.841 127.778 C 293.508 127.778,293.237 127.886,293.237 128.019 C 293.237 128.152,292.863 128.261,292.406 128.261 C 291.948 128.261,291.515 128.358,291.442 128.476 C 291.304 128.698,290.278 128.920,288.406 129.130 C 287.808 129.197,287.101 129.351,286.836 129.471 C 286.014 129.844,277.295 130.352,277.294 130.028 C 277.294 129.919,276.289 129.796,275.060 129.754 C 273.831 129.711,272.723 129.575,272.597 129.452 C 272.470 129.328,271.797 129.227,271.101 129.227 C 270.405 129.227,269.768 129.118,269.686 128.986 C 269.604 128.853,269.108 128.744,268.585 128.744 C 268.061 128.744,267.633 128.635,267.633 128.502 C 267.633 128.370,267.259 128.261,266.802 128.261 C 266.345 128.261,265.903 128.152,265.821 128.019 C 265.739 127.886,265.461 127.778,265.203 127.778 C 264.945 127.778,264.734 127.669,264.734 127.536 C 264.734 127.403,264.415 127.295,264.024 127.295 C 263.633 127.295,263.246 127.186,263.164 127.053 C 263.082 126.920,262.750 126.812,262.425 126.812 C 262.101 126.812,261.836 126.703,261.836 126.570 C 261.836 126.437,261.618 126.329,261.353 126.329 C 261.087 126.329,260.870 126.220,260.870 126.087 C 260.870 125.954,260.598 125.845,260.266 125.845 C 259.934 125.845,259.662 125.737,259.662 125.604 C 259.662 125.471,259.444 125.362,259.179 125.362 C 258.913 125.362,258.696 125.254,258.696 125.121 C 258.696 124.988,258.478 124.879,258.213 124.879 C 257.947 124.879,257.729 124.771,257.729 124.638 C 257.729 124.505,257.512 124.396,257.246 124.396 C 256.963 124.396,256.763 124.235,256.763 124.006 C 256.763 123.734,256.616 123.654,256.280 123.741 C 255.988 123.818,255.797 123.749,255.797 123.566 C 255.797 123.400,255.308 123.013,254.710 122.705 C 254.112 122.398,253.623 122.055,253.623 121.943 C 253.623 121.831,253.430 121.739,253.193 121.739 C 252.957 121.739,252.607 121.522,252.415 121.256 C 252.224 120.990,251.925 120.773,251.750 120.773 C 251.576 120.773,251.053 120.393,250.588 119.928 C 250.123 119.463,249.642 119.082,249.519 119.082 C 249.235 119.082,243.720 113.608,243.720 113.326 C 243.720 113.210,243.394 112.774,242.995 112.357 C 242.597 111.940,242.271 111.474,242.271 111.323 C 242.271 111.171,242.073 110.871,241.831 110.656 C 241.589 110.441,241.127 109.779,240.804 109.184 C 240.481 108.589,239.973 107.870,239.674 107.586 C 239.375 107.302,239.130 106.892,239.130 106.675 C 239.130 106.458,239.022 106.280,238.889 106.280 C 238.756 106.280,238.647 106.063,238.647 105.797 C 238.647 105.531,238.539 105.314,238.406 105.314 C 238.273 105.314,238.164 105.097,238.164 104.831 C 238.164 104.565,238.056 104.348,237.923 104.348 C 237.790 104.348,237.681 104.130,237.681 103.865 C 237.681 103.599,237.572 103.382,237.440 103.382 C 237.307 103.382,237.198 103.171,237.198 102.913 C 237.198 102.655,237.089 102.377,236.957 102.295 C 236.824 102.213,236.715 101.934,236.715 101.677 C 236.715 101.419,236.606 101.208,236.473 101.208 C 236.341 101.208,236.232 100.882,236.232 100.483 C 236.232 100.085,236.123 99.758,235.990 99.758 C 235.857 99.758,235.749 99.432,235.749 99.034 C 235.749 98.635,235.640 98.309,235.507 98.309 C 235.374 98.309,235.266 98.037,235.266 97.705 C 235.266 97.373,235.157 97.101,235.024 97.101 C 234.891 97.101,234.783 96.721,234.783 96.256 C 234.783 95.791,234.674 95.411,234.541 95.411 C 234.408 95.411,234.300 94.982,234.300 94.459 C 234.300 93.935,234.191 93.440,234.058 93.357 C 233.925 93.275,233.816 92.856,233.816 92.425 C 233.816 91.995,233.715 91.539,233.592 91.413 C 232.880 90.685,232.888 76.739,233.601 75.978 C 233.720 75.852,233.816 75.390,233.816 74.952 C 233.816 74.513,233.925 74.155,234.058 74.155 C 234.191 74.155,234.300 73.726,234.300 73.203 C 234.300 72.679,234.408 72.184,234.541 72.101 C 234.674 72.019,234.783 71.639,234.783 71.256 C 234.783 70.873,234.891 70.493,235.024 70.411 C 235.157 70.329,235.266 69.948,235.266 69.565 C 235.266 69.182,235.374 68.802,235.507 68.720 C 235.640 68.638,235.749 68.360,235.749 68.102 C 235.749 67.844,235.857 67.633,235.990 67.633 C 236.123 67.633,236.232 67.307,236.232 66.908 C 236.232 66.510,236.341 66.184,236.473 66.184 C 236.606 66.184,236.715 65.966,236.715 65.700 C 236.715 65.435,236.824 65.217,236.957 65.217 C 237.089 65.217,237.198 65.000,237.198 64.734 C 237.198 64.469,237.307 64.251,237.440 64.251 C 237.572 64.251,237.681 64.034,237.681 63.768 C 237.681 63.502,237.790 63.285,237.923 63.285 C 238.056 63.285,238.164 63.068,238.164 62.802 C 238.164 62.536,238.273 62.319,238.406 62.319 C 238.539 62.319,238.647 62.101,238.647 61.836 C 238.647 61.570,238.756 61.353,238.889 61.353 C 239.022 61.353,239.130 61.124,239.130 60.844 C 239.130 60.564,239.402 60.121,239.734 59.860 C 240.066 59.599,240.338 59.254,240.338 59.094 C 240.338 58.933,240.556 58.646,240.821 58.454 C 241.087 58.263,241.304 57.966,241.304 57.795 C 241.304 57.624,241.630 57.142,242.029 56.725 C 242.428 56.308,242.754 55.864,242.754 55.737 C 242.754 55.611,243.080 55.203,243.478 54.831 C 243.877 54.459,244.203 54.028,244.203 53.874 C 244.203 53.721,244.312 53.662,244.444 53.744 C 244.577 53.826,244.686 53.748,244.686 53.570 C 244.686 53.392,244.903 53.090,245.169 52.899 C 245.435 52.707,245.652 52.404,245.652 52.224 C 245.652 51.834,246.237 51.208,246.601 51.208 C 246.743 51.208,246.860 51.099,246.860 50.966 C 246.860 50.833,247.010 50.725,247.193 50.725 C 247.376 50.725,247.974 50.290,248.522 49.758 C 249.069 49.227,249.610 48.792,249.723 48.792 C 249.836 48.792,250.269 48.467,250.685 48.069 C 251.102 47.671,251.562 47.318,251.709 47.284 C 251.856 47.250,252.309 46.918,252.718 46.545 C 253.126 46.173,253.959 45.579,254.568 45.226 C 255.178 44.872,255.713 44.498,255.757 44.393 C 255.801 44.288,256.046 44.203,256.300 44.203 C 256.555 44.203,256.764 44.121,256.765 44.022 C 256.767 43.805,257.937 43.237,258.381 43.237 C 258.554 43.237,258.696 43.128,258.696 42.995 C 258.696 42.862,258.913 42.754,259.179 42.754 C 259.444 42.754,259.662 42.645,259.662 42.512 C 259.662 42.379,259.927 42.271,260.251 42.271 C 260.576 42.271,260.908 42.162,260.990 42.029 C 261.072 41.896,261.405 41.787,261.729 41.787 C 262.054 41.787,262.319 41.679,262.319 41.546 C 262.319 41.413,262.569 41.304,262.874 41.304 C 263.180 41.304,263.538 41.196,263.670 41.064 C 263.802 40.932,264.204 40.800,264.564 40.770 C 264.923 40.740,265.217 40.631,265.217 40.527 C 265.217 40.423,265.483 40.338,265.807 40.338 C 266.131 40.338,266.464 40.229,266.546 40.097 C 266.628 39.964,266.954 39.855,267.271 39.855 C 267.587 39.855,267.913 39.746,267.995 39.614 C 268.077 39.481,268.685 39.372,269.346 39.372 C 270.190 39.372,270.588 39.265,270.686 39.010 C 270.795 38.723,271.298 38.647,273.079 38.647 C 274.322 38.647,275.401 38.539,275.483 38.406 C 275.565 38.273,276.088 38.164,276.645 38.163 L 277.657 38.162 278.517 36.412 C 278.989 35.449,282.658 28.138,286.669 20.165 C 290.680 12.192,293.961 5.480,293.961 5.249 C 293.961 4.859,293.260 4.831,283.454 4.831 C 276.610 4.831,272.947 4.915,272.947 5.072 C 272.947 5.215,272.066 5.314,270.787 5.314 C 269.599 5.314,268.560 5.423,268.478 5.556 C 268.396 5.688,267.690 5.797,266.908 5.797 C 266.127 5.797,265.420 5.906,265.338 6.039 C 265.256 6.171,264.652 6.280,263.995 6.280 C 263.339 6.280,262.802 6.389,262.802 6.522 C 262.802 6.655,262.367 6.763,261.836 6.763 C 261.304 6.763,260.870 6.872,260.870 7.005 C 260.870 7.138,260.441 7.246,259.918 7.246 C 259.394 7.246,258.899 7.355,258.816 7.488 C 258.734 7.621,258.300 7.729,257.850 7.729 C 257.401 7.729,256.966 7.838,256.884 7.971 C 256.802 8.104,256.415 8.213,256.024 8.213 C 255.634 8.213,255.314 8.321,255.314 8.454 C 255.314 8.587,254.988 8.696,254.589 8.696 C 254.191 8.696,253.865 8.804,253.865 8.937 C 253.865 9.070,253.646 9.179,253.378 9.179 C 253.111 9.179,252.703 9.281,252.473 9.406 C 252.242 9.531,251.537 9.817,250.906 10.043 C 250.275 10.268,249.758 10.546,249.758 10.661 C 249.758 10.776,249.432 10.870,249.034 10.870 C 248.635 10.870,248.309 10.978,248.309 11.111 C 248.309 11.244,248.092 11.353,247.826 11.353 C 247.560 11.353,247.343 11.461,247.343 11.594 C 247.343 11.727,247.126 11.836,246.860 11.836 C 246.594 11.836,246.377 11.944,246.377 12.077 C 246.377 12.210,246.105 12.319,245.773 12.319 C 245.441 12.319,245.169 12.428,245.169 12.560 C 245.169 12.693,244.897 12.802,244.565 12.802 C 244.233 12.802,243.961 12.911,243.961 13.043 C 243.961 13.176,243.771 13.287,243.539 13.290 C 243.306 13.293,242.844 13.508,242.512 13.768 C 242.180 14.028,241.772 14.243,241.606 14.246 C 241.440 14.249,241.304 14.360,241.304 14.493 C 241.304 14.626,241.087 14.734,240.821 14.734 C 240.556 14.734,240.338 14.843,240.338 14.976 C 240.338 15.109,240.145 15.217,239.908 15.217 C 239.672 15.217,239.322 15.435,239.130 15.700 C 238.939 15.966,238.653 16.184,238.496 16.184 C 237.967 16.184,236.232 17.236,236.232 17.557 C 236.232 17.732,236.038 17.874,235.802 17.874 C 235.566 17.874,235.216 18.092,235.024 18.357 C 234.833 18.623,234.507 18.841,234.300 18.841 C 234.092 18.841,233.766 19.058,233.575 19.324 C 233.383 19.589,233.033 19.807,232.797 19.807 C 232.561 19.807,232.367 19.915,232.367 20.048 C 232.367 20.181,232.244 20.290,232.094 20.290 C 231.943 20.290,231.644 20.485,231.429 20.724 C 231.214 20.963,230.659 21.423,230.196 21.748 C 228.798 22.726,227.402 24.011,222.297 29.021 C 219.869 31.405,219.324 32.023,219.324 32.394 C 219.324 32.538,218.835 33.119,218.237 33.683 C 217.639 34.248,217.150 34.784,217.150 34.874 C 217.150 35.121,215.652 36.715,215.420 36.715 C 215.309 36.715,215.217 36.541,215.217 36.329 C 215.217 36.116,214.891 35.638,214.493 35.266 C 214.094 34.893,213.768 34.465,213.768 34.315 C 213.768 34.023,213.568 33.781,211.478 31.545 C 210.745 30.760,210.145 30.076,210.145 30.025 C 210.145 29.819,203.578 23.430,203.367 23.430 C 203.242 23.430,203.140 23.267,203.140 23.068 C 203.140 22.868,202.971 22.705,202.764 22.705 C 202.540 22.705,202.457 22.592,202.559 22.426 C 202.663 22.259,202.626 22.213,202.467 22.311 C 202.321 22.402,201.818 22.092,201.350 21.624 C 200.882 21.156,200.376 20.773,200.226 20.773 C 200.075 20.773,199.648 20.447,199.275 20.048 C 198.903 19.650,198.495 19.324,198.369 19.324 C 198.243 19.324,197.798 18.998,197.381 18.599 C 196.964 18.200,196.447 17.874,196.233 17.874 C 196.018 17.874,195.629 17.603,195.367 17.271 C 195.106 16.938,194.754 16.667,194.585 16.667 C 194.416 16.667,194.081 16.449,193.841 16.184 C 193.600 15.918,193.257 15.700,193.079 15.700 C 192.900 15.700,192.754 15.592,192.754 15.459 C 192.754 15.326,192.536 15.217,192.271 15.217 C 192.005 15.217,191.787 15.129,191.787 15.021 C 191.787 14.774,189.927 13.768,189.470 13.768 C 189.283 13.768,189.130 13.659,189.130 13.527 C 189.130 13.394,188.913 13.285,188.647 13.285 C 188.382 13.285,188.164 13.176,188.164 13.043 C 188.164 12.911,187.947 12.802,187.681 12.802 C 187.415 12.802,187.198 12.693,187.198 12.560 C 187.198 12.428,186.981 12.319,186.715 12.319 C 186.449 12.319,186.232 12.210,186.232 12.077 C 186.232 11.944,186.014 11.836,185.749 11.836 C 185.483 11.836,185.266 11.727,185.266 11.594 C 185.266 11.461,185.048 11.353,184.783 11.353 C 184.517 11.353,184.300 11.244,184.300 11.111 C 184.300 10.978,184.028 10.870,183.696 10.870 C 183.364 10.870,183.092 10.761,183.092 10.628 C 183.092 10.495,182.976 10.386,182.835 10.386 C 182.693 10.386,181.984 10.115,181.258 9.783 C 180.531 9.450,179.778 9.179,179.582 9.179 C 179.387 9.179,179.227 9.070,179.227 8.937 C 179.227 8.804,178.907 8.696,178.517 8.696 C 178.126 8.696,177.739 8.587,177.657 8.454 C 177.575 8.321,177.242 8.213,176.918 8.213 C 176.594 8.213,176.329 8.104,176.329 7.971 C 176.329 7.838,175.948 7.729,175.483 7.729 C 175.018 7.729,174.638 7.621,174.638 7.488 C 174.638 7.355,174.312 7.246,173.913 7.246 C 173.514 7.246,173.188 7.138,173.188 7.005 C 173.188 6.872,172.754 6.763,172.222 6.763 C 171.691 6.763,171.256 6.655,171.256 6.522 C 171.256 6.389,170.767 6.280,170.169 6.280 C 169.571 6.280,169.082 6.171,169.082 6.039 C 169.082 5.906,168.545 5.797,167.889 5.797 C 167.232 5.797,166.628 5.688,166.546 5.556 C 166.464 5.423,165.805 5.314,165.082 5.314 C 164.360 5.314,163.768 5.205,163.768 5.072 C 163.768 4.932,162.968 4.831,161.850 4.831 C 160.795 4.831,159.865 4.722,159.783 4.589 C 159.688 4.436,156.559 4.348,151.193 4.348 C 145.728 4.348,142.754 4.433,142.754 4.589 " stroke="none" fill="#049cc4" fill-rule="evenodd"></path></g></svg>